<svg width="405" height="134" viewBox="0 0 405 134" fill="none" xmlns="http://www.w3.org/2000/svg">
<g opacity="0.89">
<path d="M380.938 133.176H34.5718V129.316C34.5718 118.178 25.5074 109.114 14.376 109.114H10.5161V36.0835H14.376C25.5141 36.0835 34.5718 27.0191 34.5718 15.881V12.0211H380.938V15.881C380.938 27.0191 390.002 36.0768 401.14 36.0835H405V109.114H401.14C390.002 109.114 380.938 118.178 380.938 129.316V133.176Z" fill="#D9C2A0"/>
</g>
<path d="M370.428 121.155H24.0624V117.295C24.0624 106.157 15.0047 97.0924 3.86657 97.0924H0V24.0624H3.85988C14.998 24.0624 24.0557 14.998 24.0557 3.85988V0H370.422V3.85988C370.422 14.998 379.486 24.0557 390.624 24.0624H394.484V97.0924H390.624C379.486 97.0924 370.422 106.157 370.422 117.295V121.155H370.428ZM31.5213 113.428H362.969C364.682 101.113 374.449 91.3461 386.764 89.6336V31.5213C374.449 29.8087 364.682 20.042 362.969 7.72645H31.5213C29.8087 20.042 20.042 29.8087 7.72645 31.5213V89.6269C20.042 91.3394 29.8087 101.106 31.5213 113.422V113.428Z" fill="#474747"/>
</svg>
