<svg width="198" height="105" viewBox="0 0 198 105" fill="none" xmlns="http://www.w3.org/2000/svg">
<mask id="path-1-outside-1_201_180" maskUnits="userSpaceOnUse" x="-2" y="-1" width="201" height="107" fill="black">
<rect fill="white" x="-2" y="-1" width="201" height="107"/>
<path d="M30.996 104L0.330447 32.4918H17.7388L44.1192 95.5636H35.5489L62.8667 32.4918H78.9359L48.2704 104H30.996ZM89.3977 104V32.4918H106.136V104H89.3977ZM97.834 20.7077C94.7095 20.7077 92.1205 19.7256 90.0672 17.7616C88.1032 15.7976 87.1212 13.4319 87.1212 10.6644C87.1212 7.80761 88.1032 5.44186 90.0672 3.56711C92.1205 1.60309 94.7095 0.621086 97.834 0.621086C100.959 0.621086 103.503 1.55846 105.467 3.4332C107.52 5.21868 108.547 7.49516 108.547 10.2626C108.547 13.2087 107.565 15.7083 105.601 17.7616C103.637 19.7256 101.048 20.7077 97.834 20.7077ZM158.37 104.937C151.496 104.937 145.291 103.42 139.756 100.384C134.311 97.2598 130.026 92.9747 126.901 87.529C123.776 82.0833 122.214 75.6556 122.214 68.2459C122.214 60.8362 123.776 54.4085 126.901 48.9628C130.026 43.5171 134.311 39.2766 139.756 36.2413C145.291 33.206 151.496 31.6883 158.37 31.6883C164.351 31.6883 169.708 33.0274 174.439 35.7056C179.171 38.2946 182.92 42.2673 185.688 47.6237C188.455 52.9801 189.839 59.8542 189.839 68.2459C189.839 76.5483 188.5 83.4224 185.822 88.8681C183.143 94.2245 179.439 98.2418 174.707 100.92C169.976 103.598 164.53 104.937 158.37 104.937ZM160.379 90.6089C164.396 90.6089 167.967 89.7162 171.091 87.9307C174.305 86.1453 176.85 83.5563 178.724 80.1639C180.688 76.7715 181.67 72.7989 181.67 68.2459C181.67 63.6037 180.688 59.631 178.724 56.3279C176.85 52.9355 174.305 50.3465 171.091 48.561C167.967 46.7756 164.396 45.8828 160.379 45.8828C156.361 45.8828 152.746 46.7756 149.532 48.561C146.407 50.3465 143.863 52.9355 141.899 56.3279C140.024 59.631 139.087 63.6037 139.087 68.2459C139.087 72.7989 140.024 76.7715 141.899 80.1639C143.863 83.5563 146.407 86.1453 149.532 87.9307C152.746 89.7162 156.361 90.6089 160.379 90.6089ZM182.072 104V87.1273L182.742 68.112L181.403 49.0967V4.6384H198.007V104H182.072Z"/>
</mask>
<path d="M30.996 104L0.330447 32.4918H17.7388L44.1192 95.5636H35.5489L62.8667 32.4918H78.9359L48.2704 104H30.996ZM89.3977 104V32.4918H106.136V104H89.3977ZM97.834 20.7077C94.7095 20.7077 92.1205 19.7256 90.0672 17.7616C88.1032 15.7976 87.1212 13.4319 87.1212 10.6644C87.1212 7.80761 88.1032 5.44186 90.0672 3.56711C92.1205 1.60309 94.7095 0.621086 97.834 0.621086C100.959 0.621086 103.503 1.55846 105.467 3.4332C107.52 5.21868 108.547 7.49516 108.547 10.2626C108.547 13.2087 107.565 15.7083 105.601 17.7616C103.637 19.7256 101.048 20.7077 97.834 20.7077ZM158.37 104.937C151.496 104.937 145.291 103.42 139.756 100.384C134.311 97.2598 130.026 92.9747 126.901 87.529C123.776 82.0833 122.214 75.6556 122.214 68.2459C122.214 60.8362 123.776 54.4085 126.901 48.9628C130.026 43.5171 134.311 39.2766 139.756 36.2413C145.291 33.206 151.496 31.6883 158.37 31.6883C164.351 31.6883 169.708 33.0274 174.439 35.7056C179.171 38.2946 182.92 42.2673 185.688 47.6237C188.455 52.9801 189.839 59.8542 189.839 68.2459C189.839 76.5483 188.5 83.4224 185.822 88.8681C183.143 94.2245 179.439 98.2418 174.707 100.92C169.976 103.598 164.53 104.937 158.37 104.937ZM160.379 90.6089C164.396 90.6089 167.967 89.7162 171.091 87.9307C174.305 86.1453 176.85 83.5563 178.724 80.1639C180.688 76.7715 181.67 72.7989 181.67 68.2459C181.67 63.6037 180.688 59.631 178.724 56.3279C176.85 52.9355 174.305 50.3465 171.091 48.561C167.967 46.7756 164.396 45.8828 160.379 45.8828C156.361 45.8828 152.746 46.7756 149.532 48.561C146.407 50.3465 143.863 52.9355 141.899 56.3279C140.024 59.631 139.087 63.6037 139.087 68.2459C139.087 72.7989 140.024 76.7715 141.899 80.1639C143.863 83.5563 146.407 86.1453 149.532 87.9307C152.746 89.7162 156.361 90.6089 160.379 90.6089ZM182.072 104V87.1273L182.742 68.112L181.403 49.0967V4.6384H198.007V104H182.072Z" fill="#363231"/>
<path d="M30.996 104L30.1755 104.352L30.4074 104.893H30.996V104ZM0.330447 32.4918V31.599H-1.02376L-0.490028 32.8436L0.330447 32.4918ZM17.7388 32.4918L18.5624 32.1473L18.3331 31.599H17.7388V32.4918ZM44.1192 95.5636V96.4564H45.4603L44.9428 95.2192L44.1192 95.5636ZM35.5489 95.5636L34.7297 95.2088L34.1894 96.4564H35.5489V95.5636ZM62.8667 32.4918V31.599H62.2804L62.0475 32.137L62.8667 32.4918ZM78.9359 32.4918L79.7564 32.8436L80.2901 31.599H78.9359V32.4918ZM48.2704 104V104.893H48.8589L49.0909 104.352L48.2704 104ZM31.8164 103.648L1.15092 32.1399L-0.490028 32.8436L30.1755 104.352L31.8164 103.648ZM0.330447 33.3845H17.7388V31.599H0.330447V33.3845ZM16.9152 32.8363L43.2956 95.9081L44.9428 95.2192L18.5624 32.1473L16.9152 32.8363ZM44.1192 94.6709H35.5489V96.4564H44.1192V94.6709ZM36.3681 95.9184L63.6859 32.8466L62.0475 32.137L34.7297 95.2088L36.3681 95.9184ZM62.8667 33.3845H78.9359V31.599H62.8667V33.3845ZM78.1154 32.1399L47.4499 103.648L49.0909 104.352L79.7564 32.8436L78.1154 32.1399ZM48.2704 103.107H30.996V104.893H48.2704V103.107ZM89.3977 104H88.5049V104.893H89.3977V104ZM89.3977 32.4918V31.599H88.5049V32.4918H89.3977ZM106.136 32.4918H107.029V31.599H106.136V32.4918ZM106.136 104V104.893H107.029V104H106.136ZM90.0672 17.7616L89.436 18.3929L89.443 18.3999L89.4501 18.4068L90.0672 17.7616ZM90.0672 3.56711L90.6836 4.21288L90.6843 4.21224L90.0672 3.56711ZM105.467 3.4332L104.851 4.07897L104.866 4.09327L104.881 4.10687L105.467 3.4332ZM105.601 17.7616L106.232 18.3929L106.239 18.3859L106.246 18.3787L105.601 17.7616ZM90.2904 104V32.4918H88.5049V104H90.2904ZM89.3977 33.3845H106.136V31.599H89.3977V33.3845ZM105.244 32.4918V104H107.029V32.4918H105.244ZM106.136 103.107H89.3977V104.893H106.136V103.107ZM97.834 19.8149C94.9144 19.8149 92.5542 18.9051 90.6843 17.1165L89.4501 18.4068C91.6868 20.5462 94.5046 21.6004 97.834 21.6004V19.8149ZM90.6985 17.1304C88.9012 15.3331 88.0139 13.1941 88.0139 10.6644H86.2285C86.2285 13.6696 87.3052 16.2621 89.436 18.3929L90.6985 17.1304ZM88.0139 10.6644C88.0139 8.03733 88.9062 5.90957 90.6836 4.21288L89.4508 2.92135C87.3003 4.97415 86.2285 7.5779 86.2285 10.6644H88.0139ZM90.6843 4.21224C92.5542 2.42362 94.9144 1.51382 97.834 1.51382V-0.27165C94.5046 -0.27165 91.6868 0.782568 89.4501 2.92198L90.6843 4.21224ZM97.834 1.51382C100.766 1.51382 103.078 2.38674 104.851 4.07897L106.083 2.78744C103.928 0.730181 101.151 -0.27165 97.834 -0.27165V1.51382ZM104.881 4.10687C106.736 5.71949 107.654 7.74849 107.654 10.2626H109.44C109.44 7.24183 108.305 4.71786 106.053 2.75954L104.881 4.10687ZM107.654 10.2626C107.654 12.9882 106.754 15.2641 104.956 17.1445L106.246 18.3787C108.375 16.1526 109.44 13.4292 109.44 10.2626H107.654ZM104.97 17.1304C103.199 18.9005 100.851 19.8149 97.834 19.8149V21.6004C101.244 21.6004 104.074 20.5508 106.232 18.3929L104.97 17.1304ZM139.756 100.384L139.312 101.159L139.32 101.163L139.327 101.167L139.756 100.384ZM126.901 87.529L127.675 87.0847L126.901 87.529ZM126.901 48.9628L127.675 49.4071L126.901 48.9628ZM139.756 36.2413L139.327 35.4585L139.322 35.4615L139.756 36.2413ZM174.439 35.7056L173.999 36.4826L174.011 36.4888L174.439 35.7056ZM185.688 47.6237L184.895 48.0335L185.688 47.6237ZM185.822 88.8681L186.62 89.2674L186.623 89.2621L185.822 88.8681ZM174.707 100.92L174.267 100.143L174.707 100.92ZM171.091 87.9307L170.658 87.1503L170.649 87.1556L171.091 87.9307ZM178.724 80.1639L177.952 79.7166L177.947 79.7243L177.943 79.7321L178.724 80.1639ZM178.724 56.3279L177.943 56.7597L177.95 56.772L177.957 56.7841L178.724 56.3279ZM171.091 48.561L170.648 49.3362L170.658 49.3414L171.091 48.561ZM149.532 48.561L149.098 47.7806L149.089 47.7859L149.532 48.561ZM141.899 56.3279L141.126 55.8805L141.123 55.8872L141.899 56.3279ZM141.899 80.1639L141.118 80.5957L141.122 80.6035L141.126 80.6112L141.899 80.1639ZM149.532 87.9307L149.089 88.7059L149.098 88.7111L149.532 87.9307ZM182.072 104H181.179V104.893H182.072V104ZM182.072 87.1273L181.18 87.0959L181.179 87.1116V87.1273H182.072ZM182.742 68.112L183.634 68.1434L183.636 68.0963L183.632 68.0493L182.742 68.112ZM181.403 49.0967H180.51V49.1281L180.512 49.1594L181.403 49.0967ZM181.403 4.6384V3.74566H180.51V4.6384H181.403ZM198.007 4.6384H198.9V3.74566H198.007V4.6384ZM198.007 104V104.893H198.9V104H198.007ZM158.37 104.045C151.632 104.045 145.578 102.559 140.186 99.6017L139.327 101.167C145.005 104.281 151.36 105.83 158.37 105.83V104.045ZM140.201 99.6101C134.892 96.5643 130.721 92.3931 127.675 87.0847L126.127 87.9733C129.33 93.5563 133.729 97.9554 139.312 101.159L140.201 99.6101ZM127.675 87.0847C124.641 81.7968 123.107 75.528 123.107 68.2459H121.321C121.321 75.7833 122.912 82.3698 126.127 87.9733L127.675 87.0847ZM123.107 68.2459C123.107 60.9638 124.641 54.695 127.675 49.4071L126.127 48.5185C122.912 54.122 121.321 60.7085 121.321 68.2459H123.107ZM127.675 49.4071C130.72 44.1009 134.888 39.9769 140.191 37.0211L139.322 35.4615C133.733 38.5763 129.331 42.9332 126.127 48.5185L127.675 49.4071ZM140.186 37.024C145.578 34.0672 151.632 32.5811 158.37 32.5811V30.7956C151.36 30.7956 145.005 32.3448 139.327 35.4585L140.186 37.024ZM158.37 32.5811C164.213 32.5811 169.415 33.8877 173.999 36.4825L174.879 34.9287C170 32.1672 164.49 30.7956 158.37 30.7956V32.5811ZM174.011 36.4888C178.568 38.9825 182.199 42.8157 184.895 48.0335L186.481 47.2139C183.642 41.7188 179.773 37.6067 174.868 34.9225L174.011 36.4888ZM184.895 48.0335C187.576 53.2234 188.946 59.944 188.946 68.2459H190.732C190.732 59.7643 189.334 52.7367 186.481 47.2139L184.895 48.0335ZM188.946 68.2459C188.946 76.4593 187.62 83.1876 185.021 88.4741L186.623 89.2621C189.379 83.6573 190.732 76.6374 190.732 68.2459H188.946ZM185.023 88.4689C182.416 93.6833 178.829 97.5612 174.267 100.143L175.147 101.697C180.048 98.9225 183.871 94.7657 186.62 89.2674L185.023 88.4689ZM174.267 100.143C169.687 102.736 164.397 104.045 158.37 104.045V105.83C164.663 105.83 170.264 104.461 175.147 101.697L174.267 100.143ZM160.379 91.5017C164.533 91.5017 168.26 90.5771 171.534 88.7058L170.649 87.1556C167.674 88.8553 164.259 89.7162 160.379 89.7162V91.5017ZM171.525 88.7111C174.893 86.8399 177.555 84.1263 179.506 80.5957L177.943 79.7321C176.145 82.9863 173.717 85.4507 170.658 87.1503L171.525 88.7111ZM179.497 80.6112C181.552 77.0623 182.563 72.9303 182.563 68.2459H180.778C180.778 72.6674 179.825 76.4808 177.952 79.7166L179.497 80.6112ZM182.563 68.2459C182.563 63.4765 181.553 59.3389 179.492 55.8716L177.957 56.7841C179.823 59.923 180.778 63.7308 180.778 68.2459H182.563ZM179.506 55.8961C177.555 52.3655 174.893 49.6519 171.525 47.7807L170.658 49.3414C173.717 51.0411 176.145 53.5054 177.943 56.7597L179.506 55.8961ZM171.534 47.7859C168.26 45.9147 164.533 44.9901 160.379 44.9901V46.7756C164.259 46.7756 167.674 47.6364 170.649 49.3362L171.534 47.7859ZM160.379 44.9901C156.224 44.9901 152.457 45.9148 149.098 47.7807L149.965 49.3414C153.035 47.6363 156.499 46.7756 160.379 46.7756V44.9901ZM149.089 47.7859C145.815 49.6565 143.162 52.3642 141.126 55.8806L142.672 56.7752C144.564 53.5067 146.999 51.0365 149.975 49.3362L149.089 47.7859ZM141.123 55.8872C139.156 59.3515 138.194 63.4833 138.194 68.2459H139.98C139.98 63.724 140.892 59.9104 142.675 56.7685L141.123 55.8872ZM138.194 68.2459C138.194 72.9234 139.158 77.0498 141.118 80.5957L142.68 79.7321C140.89 76.4933 139.98 72.6743 139.98 68.2459H138.194ZM141.126 80.6112C143.162 84.1275 145.815 86.8352 149.089 88.7058L149.975 87.1556C146.999 85.4553 144.564 82.9851 142.672 79.7166L141.126 80.6112ZM149.098 88.7111C152.457 90.577 156.224 91.5017 160.379 91.5017V89.7162C156.499 89.7162 153.035 88.8554 149.965 87.1503L149.098 88.7111ZM182.965 104V87.1273H181.179V104H182.965ZM182.964 87.1587L183.634 68.1434L181.849 68.0806L181.18 87.0959L182.964 87.1587ZM183.632 68.0493L182.293 49.034L180.512 49.1594L181.851 68.1747L183.632 68.0493ZM182.295 49.0967V4.6384H180.51V49.0967H182.295ZM181.403 5.53114H198.007V3.74566H181.403V5.53114ZM197.115 4.6384V104H198.9V4.6384H197.115ZM198.007 103.107H182.072V104.893H198.007V103.107Z" fill="white" mask="url(#path-1-outside-1_201_180)"/>
</svg>
